<svg width="8" height="9" viewBox="0 0 8 9" fill="none" xmlns="http://www.w3.org/2000/svg">
<path d="M3.62413 6.43415C3.62634 6.38539 3.70658 6.36588 3.73051 6.40844C3.8431 6.60791 4.0346 6.90091 4.2518 7.03434C4.469 7.16776 4.81741 7.20544 5.04614 7.21519C5.0949 7.21741 5.11396 7.29764 5.07141 7.32158C4.87193 7.43417 4.57938 7.62566 4.44595 7.84286C4.31253 8.06007 4.27485 8.40848 4.2651 8.6372C4.26288 8.68596 4.1822 8.70502 4.15871 8.66247C4.04612 8.463 3.85463 8.17044 3.63698 8.03702C3.41978 7.90359 3.07137 7.86591 2.84308 7.85616C2.79432 7.85394 2.77482 7.77327 2.81737 7.74978C3.01685 7.63718 3.30985 7.44569 3.44327 7.22805C3.57625 7.01084 3.61437 6.66243 3.62413 6.43415Z" fill="white"/>
<path opacity="0.5" d="M7.26615 5.99087C7.26216 5.94211 7.17749 5.92172 7.15178 5.96339C7.07554 6.08884 6.96561 6.23955 6.84282 6.3149C6.72004 6.39026 6.53608 6.41952 6.3898 6.43104C6.34104 6.43459 6.32065 6.51969 6.36232 6.54496C6.48732 6.6212 6.63847 6.73114 6.71383 6.85392C6.78919 6.97671 6.81844 7.16111 6.82997 7.30739C6.83351 7.35615 6.91862 7.37609 6.94389 7.33443C7.02013 7.20942 7.13006 7.05827 7.25285 6.98336C7.37563 6.90844 7.56003 6.8783 7.70631 6.86722C7.75507 6.86323 7.77502 6.77856 7.73335 6.75286C7.60835 6.67661 7.4572 6.56668 7.38228 6.4439C7.30737 6.32111 7.27723 6.13715 7.26615 5.99087Z" fill="white"/>
<path d="M5.58603 0.887599L5.47876 0.751958C5.06342 0.227568 4.85596 -0.0348483 4.61438 0.00371627C4.37324 0.0427241 4.25755 0.35656 4.02661 0.984675L3.96676 1.14691C3.90116 1.32555 3.86836 1.41465 3.80541 1.48025C3.74247 1.54586 3.65647 1.57999 3.48448 1.64869L3.32801 1.7112L3.21852 1.75552C2.6866 1.96829 2.41886 2.08931 2.38429 2.32424C2.34794 2.57469 2.60149 2.78923 3.10859 3.21787L3.2398 3.32869C3.38431 3.45059 3.45612 3.51176 3.49734 3.59465C3.53901 3.67755 3.54477 3.77329 3.55629 3.96479L3.56693 4.13899C3.6086 4.81276 3.62899 5.14965 3.84841 5.26579C4.06739 5.38192 4.33955 5.20062 4.88389 4.83759L5.02485 4.74361C5.17955 4.64033 5.25668 4.58847 5.34534 4.57473C5.43399 4.56098 5.52309 4.58536 5.70261 4.63501L5.86529 4.68022C6.49607 4.85487 6.81123 4.9422 6.98278 4.76356C7.15477 4.58492 7.06922 4.25823 6.89856 3.60529L6.85423 3.43641C6.80591 3.25068 6.78153 3.15803 6.79483 3.06628C6.80813 2.97452 6.85778 2.89384 6.95707 2.73294L7.04705 2.58666C7.39502 2.02104 7.56923 1.73824 7.45664 1.51128C7.3436 1.28521 7.01868 1.26438 6.36885 1.22404L6.20041 1.2134C6.01601 1.20188 5.9238 1.19612 5.84357 1.15356C5.76334 1.11101 5.70439 1.03654 5.58648 0.887599" fill="white"/>
<path opacity="0.5" d="M2.98507 5.02075C2.0378 5.48353 1.24922 6.2167 0.951785 7.0926C0.618446 5.00613 1.08122 3.65858 1.82281 2.8208C1.88664 2.95157 1.96998 3.05972 2.04445 3.14439C2.19959 3.31992 2.42211 3.50787 2.64818 3.69892L2.81086 3.83633L2.88622 3.90061C2.88844 3.92898 2.89065 3.96267 2.89287 4.00566L2.90617 4.22065C2.9239 4.51099 2.94163 4.79424 2.98507 5.02075Z" fill="white"/>
</svg>
