<svg width="14" height="14" viewBox="0 0 14 14" fill="none" xmlns="http://www.w3.org/2000/svg">
<path d="M7.88695e-07 6.99839C0.000351877 5.46372 0.505038 3.97168 1.43639 2.75191C2.36774 1.53215 3.67413 0.652256 5.15452 0.247653C6.6349 -0.156949 8.20723 -0.0638375 9.62951 0.512658C11.0518 1.08915 12.2452 2.11708 13.0261 3.43825C13.807 4.75941 14.132 6.30058 13.9513 7.82457C13.7705 9.34857 13.0939 10.7709 12.0256 11.8727C10.9573 12.9745 9.55649 13.6947 8.0388 13.9225C6.52111 14.1502 4.97064 13.8729 3.626 13.1332L0.9044 13.962C0.783007 13.999 0.653846 14.0023 0.530731 13.9715C0.407616 13.9407 0.295179 13.8771 0.205447 13.7873C0.115715 13.6976 0.0520639 13.5852 0.0213013 13.4621C-0.00946124 13.3389 -0.00617774 13.2098 0.0308007 13.0884L0.8596 10.3626C0.295071 9.33118 -0.000557296 8.17419 7.88695e-07 6.99839ZM4.2 6.2984C4.2 6.48405 4.27375 6.66209 4.40502 6.79337C4.5363 6.92464 4.71435 6.99839 4.9 6.99839H9.09999C9.28565 6.99839 9.46369 6.92464 9.59497 6.79337C9.72624 6.66209 9.79999 6.48405 9.79999 6.2984C9.79999 6.11274 9.72624 5.9347 9.59497 5.80342C9.46369 5.67215 9.28565 5.5984 9.09999 5.5984H4.9C4.71435 5.5984 4.5363 5.67215 4.40502 5.80342C4.27375 5.9347 4.2 6.11274 4.2 6.2984ZM4.9 8.39839C4.71435 8.39839 4.5363 8.47214 4.40502 8.60342C4.27375 8.73469 4.2 8.91274 4.2 9.09839C4.2 9.28405 4.27375 9.46209 4.40502 9.59337C4.5363 9.72464 4.71435 9.79839 4.9 9.79839H7.7C7.88565 9.79839 8.06369 9.72464 8.19497 9.59337C8.32625 9.46209 8.39999 9.28405 8.39999 9.09839C8.39999 8.91274 8.32625 8.73469 8.19497 8.60342C8.06369 8.47214 7.88565 8.39839 7.7 8.39839H4.9Z" fill="white"/>
</svg>
