<svg width="30" height="25" viewBox="0 0 30 25" fill="none" xmlns="http://www.w3.org/2000/svg">
<path fill-rule="evenodd" clip-rule="evenodd" d="M8.27724 0.249158C12.9739 -0.1049 17.6915 -0.0815808 22.3844 0.318891L25.2132 0.559473C26.2509 0.648297 27.2287 1.08371 27.9894 1.79575C28.7501 2.50779 29.2496 3.4551 29.4076 4.48548L29.5852 5.65178C30.1896 9.60553 30.1331 13.6323 29.418 17.5675C29.2477 18.5088 28.7523 19.3602 28.0184 19.973C27.2845 20.5858 26.3588 20.921 25.4031 20.92H9.76826C9.4077 20.92 9.0541 21.0089 8.73709 21.1797L1.92474 24.8442C1.72567 24.9513 1.50226 25.0049 1.27633 24.9997C1.0504 24.9944 0.829685 24.9307 0.635747 24.8146C0.441809 24.6985 0.281283 24.534 0.169852 24.3372C0.0584219 24.1404 -0.000101561 23.9181 1.32303e-07 23.6919V8.84384C0.000448417 6.67666 0.818894 4.58964 2.29143 3.00075C3.76397 1.41186 5.78189 0.438396 7.94107 0.275308L8.27724 0.249158ZM8.27376 8.87348C7.6963 8.87348 7.1425 9.10307 6.73417 9.51175C6.32585 9.92042 6.09645 10.4747 6.09645 11.0527C6.09645 11.6306 6.32585 12.1849 6.73417 12.5936C7.1425 13.0022 7.6963 13.2318 8.27376 13.2318C8.85122 13.2318 9.40502 13.0022 9.81335 12.5936C10.2217 12.1849 10.4511 11.6306 10.4511 11.0527C10.4511 10.4747 10.2217 9.92042 9.81335 9.51175C9.40502 9.10307 8.85122 8.87348 8.27376 8.87348ZM15.2411 8.87348C14.6637 8.87348 14.1099 9.10307 13.7015 9.51175C13.2932 9.92042 13.0638 10.4747 13.0638 11.0527C13.0638 11.6306 13.2932 12.1849 13.7015 12.5936C14.1099 13.0022 14.6637 13.2318 15.2411 13.2318C15.8186 13.2318 16.3724 13.0022 16.7807 12.5936C17.189 12.1849 17.4184 11.6306 17.4184 11.0527C17.4184 10.4747 17.189 9.92042 16.7807 9.51175C16.3724 9.10307 15.8186 8.87348 15.2411 8.87348ZM20.0312 11.0527C20.0312 10.4747 20.2606 9.92042 20.6689 9.51175C21.0772 9.10307 21.6311 8.87348 22.2085 8.87348C22.786 8.87348 23.3398 9.10307 23.7481 9.51175C24.1564 9.92042 24.3858 10.4747 24.3858 11.0527C24.3858 11.6306 24.1564 12.1849 23.7481 12.5936C23.3398 13.0022 22.786 13.2318 22.2085 13.2318C21.6311 13.2318 21.0772 13.0022 20.6689 12.5936C20.2606 12.1849 20.0312 11.6306 20.0312 11.0527Z" fill="#CAC6C6"/>
</svg>
