<svg width="30" height="33" viewBox="0 0 30 33" fill="none" xmlns="http://www.w3.org/2000/svg">
<path d="M27.272 17.7273V27.2727C27.272 28.7194 26.6973 30.1068 25.6744 31.1297C24.6515 32.1526 23.2641 32.7273 21.8175 32.7273H8.18111C6.73447 32.7273 5.34709 32.1526 4.32416 31.1297C3.30124 30.1068 2.72656 28.7194 2.72656 27.2727V17.7273H27.272Z" fill="url(#paint0_linear_282_666)"/>
<path d="M27.272 17.7273V27.2727C27.272 28.7194 26.6973 30.1068 25.6744 31.1297C24.6515 32.1526 23.2641 32.7273 21.8175 32.7273H8.18111C6.73447 32.7273 5.34709 32.1526 4.32416 31.1297C3.30124 30.1068 2.72656 28.7194 2.72656 27.2727V17.7273H27.272Z" fill="#FF00A7"/>
<path d="M27.2727 8.18176C27.996 8.18176 28.6897 8.4691 29.2012 8.98056C29.7127 9.49203 30 10.1857 30 10.909V16.3636C30 17.0869 29.7127 17.7806 29.2012 18.2921C28.6897 18.8035 27.996 19.0909 27.2727 19.0909H2.72727C2.00396 19.0909 1.31026 18.8035 0.7988 18.2921C0.287337 17.7806 0 17.0869 0 16.3636V10.909C0 10.1857 0.287337 9.49203 0.7988 8.98056C1.31026 8.4691 2.00396 8.18176 2.72727 8.18176H27.2727Z" fill="url(#paint1_radial_282_666)"/>
<path d="M27.2727 8.18176C27.996 8.18176 28.6897 8.4691 29.2012 8.98056C29.7127 9.49203 30 10.1857 30 10.909V16.3636C30 17.0869 29.7127 17.7806 29.2012 18.2921C28.6897 18.8035 27.996 19.0909 27.2727 19.0909H2.72727C2.00396 19.0909 1.31026 18.8035 0.7988 18.2921C0.287337 17.7806 0 17.0869 0 16.3636V10.909C0 10.1857 0.287337 9.49203 0.7988 8.98056C1.31026 8.4691 2.00396 8.18176 2.72727 8.18176H27.2727Z" fill="#FF00A7"/>
<path fill-rule="evenodd" clip-rule="evenodd" d="M16.364 17.7273V32.7273H13.6367V17.7273H16.364Z" fill="url(#paint2_linear_282_666)"/>
<path fill-rule="evenodd" clip-rule="evenodd" d="M16.364 8.18188V19.091H13.6367V8.18188H16.364Z" fill="url(#paint3_linear_282_666)"/>
<path fill-rule="evenodd" clip-rule="evenodd" d="M10.9074 10.9091C9.99594 10.909 9.09904 10.6806 8.29864 10.2446C7.49823 9.80868 6.81982 9.1791 6.32541 8.41342C5.83099 7.64774 5.53632 6.77037 5.46833 5.86147C5.40033 4.95258 5.56117 4.04113 5.93616 3.21041C6.31115 2.37969 6.88832 1.65617 7.61496 1.10597C8.34159 0.555772 9.19451 0.196424 10.0958 0.0607617C10.9971 -0.0749008 11.918 0.0174473 12.7744 0.329368C13.6308 0.641289 14.3954 1.16284 14.9983 1.84637C15.6012 1.16284 16.3658 0.641289 17.2222 0.329368C18.0786 0.0174473 18.9995 -0.0749008 19.9008 0.0607617C20.8021 0.196424 21.655 0.555772 22.3816 1.10597C23.1082 1.65617 23.6854 2.37969 24.0604 3.21041C24.4354 4.04113 24.5962 4.95258 24.5282 5.86147C24.4602 6.77037 24.1656 7.64774 23.6712 8.41342C23.1767 9.1791 22.4983 9.80868 21.6979 10.2446C20.8975 10.6806 20.0006 10.909 19.0892 10.9091H10.9074ZM8.1801 5.45455C8.1801 4.73123 8.46744 4.03754 8.9789 3.52607C9.49036 3.01461 10.1841 2.72727 10.9074 2.72727C11.6307 2.72727 12.3244 3.01461 12.8358 3.52607C13.3473 4.03754 13.6346 4.73123 13.6346 5.45455V8.18182H10.9074C10.1841 8.18182 9.49036 7.89448 8.9789 7.38302C8.46744 6.87156 8.1801 6.17786 8.1801 5.45455ZM16.3619 8.18182H19.0892C19.6286 8.18182 20.1559 8.02187 20.6044 7.72219C21.0529 7.42251 21.4024 6.99657 21.6089 6.49823C21.8153 5.99988 21.8693 5.45152 21.7641 4.92248C21.6588 4.39344 21.3991 3.90749 21.0177 3.52607C20.6362 3.14466 20.1503 2.88491 19.6213 2.77968C19.0922 2.67445 18.5439 2.72845 18.0455 2.93488C17.5472 3.1413 17.1212 3.49086 16.8215 3.93936C16.5219 4.38785 16.3619 4.91514 16.3619 5.45455V8.18182Z" fill="url(#paint4_linear_282_666)"/>
<defs>
<linearGradient id="paint0_linear_282_666" x1="13.4338" y1="38.6209" x2="13.4338" y2="11.8855" gradientUnits="userSpaceOnUse">
<stop stop-color="#3BE6E6"/>
<stop offset="0.348" stop-color="#4FF3F3"/>
<stop offset="1" stop-color="#03A7A7"/>
</linearGradient>
<radialGradient id="paint1_radial_282_666" cx="0" cy="0" r="1" gradientUnits="userSpaceOnUse" gradientTransform="translate(15 4.09085) scale(38.6384 17.0455)">
<stop offset="0.196" stop-color="#03A7A7"/>
<stop offset="0.763" stop-color="#4DE9E9"/>
<stop offset="1" stop-color="#3BE8E8"/>
</radialGradient>
<linearGradient id="paint2_linear_282_666" x1="15.0004" y1="9.28911" x2="15.0004" y2="30.1173" gradientUnits="userSpaceOnUse">
<stop stop-color="#FB5937"/>
<stop offset="1" stop-color="#FFCD0F"/>
</linearGradient>
<linearGradient id="paint3_linear_282_666" x1="15.0004" y1="-38.5718" x2="15.0004" y2="37.7919" gradientUnits="userSpaceOnUse">
<stop stop-color="#FB5937"/>
<stop offset="1" stop-color="#FFCD0F"/>
</linearGradient>
<linearGradient id="paint4_linear_282_666" x1="20.3001" y1="10.9064" x2="14.7283" y2="-11.5527" gradientUnits="userSpaceOnUse">
<stop stop-color="#FF6F47"/>
<stop offset="1" stop-color="#FFCD0F"/>
</linearGradient>
</defs>
</svg>
