<svg width="30" height="30" viewBox="0 0 30 30" fill="none" xmlns="http://www.w3.org/2000/svg">
<path d="M28.0193 8.86302L18.3599 1.13555C16.4723 -0.36865 13.5229 -0.383397 11.65 1.12081L1.99069 8.86302C0.604461 9.96905 -0.236123 12.1811 0.0588184 13.9213L1.91695 25.0406C2.34462 27.5328 4.65991 29.4942 7.18166 29.4942H22.8136C25.3058 29.4942 27.6654 27.4886 28.093 25.0258L29.9512 13.9065C30.2166 12.1811 29.376 9.96905 28.0193 8.86302ZM16.1036 23.5954C16.1036 24.2 15.6022 24.7014 14.9976 24.7014C14.393 24.7014 13.8916 24.2 13.8916 23.5954V19.1712C13.8916 18.5666 14.393 18.0652 14.9976 18.0652C15.6022 18.0652 16.1036 18.5666 16.1036 19.1712V23.5954Z" fill="#CAC6C6"/>
</svg>
