<svg width="20" height="24" viewBox="0 0 20 24" fill="none" xmlns="http://www.w3.org/2000/svg">
<path fill-rule="evenodd" clip-rule="evenodd" d="M0.837143 0.827294C-8.51495e-08 1.65459 0 2.98447 0 5.64706V18.3529C0 21.0155 -8.51495e-08 22.3454 0.837143 23.1727C1.67429 24 3.02 24 5.71429 24H14.2857C16.98 24 18.3257 24 19.1629 23.1727C20 22.3454 20 21.0155 20 18.3529V5.64706C20 2.98447 20 1.65459 19.1629 0.827294C18.3257 -8.41477e-08 16.98 0 14.2857 0H5.71429C3.02 0 1.67429 -8.41477e-08 0.837143 0.827294ZM5.71429 5.64706C5.33541 5.64706 4.97204 5.7958 4.70413 6.06056C4.43622 6.32531 4.28571 6.6844 4.28571 7.05882C4.28571 7.43325 4.43622 7.79233 4.70413 8.05709C4.97204 8.32185 5.33541 8.47059 5.71429 8.47059H14.2857C14.6646 8.47059 15.028 8.32185 15.2959 8.05709C15.5638 7.79233 15.7143 7.43325 15.7143 7.05882C15.7143 6.6844 15.5638 6.32531 15.2959 6.06056C15.028 5.7958 14.6646 5.64706 14.2857 5.64706H5.71429ZM5.71429 11.2941C5.33541 11.2941 4.97204 11.4429 4.70413 11.7076C4.43622 11.9724 4.28571 12.3315 4.28571 12.7059C4.28571 13.0803 4.43622 13.4394 4.70413 13.7042C4.97204 13.9689 5.33541 14.1176 5.71429 14.1176H14.2857C14.6646 14.1176 15.028 13.9689 15.2959 13.7042C15.5638 13.4394 15.7143 13.0803 15.7143 12.7059C15.7143 12.3315 15.5638 11.9724 15.2959 11.7076C15.028 11.4429 14.6646 11.2941 14.2857 11.2941H5.71429ZM5.71429 16.9412C5.33541 16.9412 4.97204 17.0899 4.70413 17.3547C4.43622 17.6194 4.28571 17.9785 4.28571 18.3529C4.28571 18.7274 4.43622 19.0865 4.70413 19.3512C4.97204 19.616 5.33541 19.7647 5.71429 19.7647H11.4286C11.8075 19.7647 12.1708 19.616 12.4387 19.3512C12.7066 19.0865 12.8571 18.7274 12.8571 18.3529C12.8571 17.9785 12.7066 17.6194 12.4387 17.3547C12.1708 17.0899 11.8075 16.9412 11.4286 16.9412H5.71429Z" fill="white"/>
</svg>
