<svg width="293" height="110" viewBox="0 0 293 110" fill="none" xmlns="http://www.w3.org/2000/svg">
<path d="M1.18881 107V95.08H5.76481C6.58615 95.08 7.31148 95.224 7.94081 95.512C8.58081 95.8 9.08215 96.2267 9.44481 96.792C9.80748 97.3573 9.98881 98.056 9.98881 98.888C9.98881 99.6987 9.80215 100.387 9.42881 100.952C9.06615 101.517 8.56481 101.949 7.92481 102.248C7.29548 102.536 6.57548 102.68 5.76481 102.68H3.66881V107H1.18881ZM3.66881 100.52H5.78081C6.13281 100.52 6.43681 100.451 6.69281 100.312C6.94881 100.173 7.14615 99.9813 7.28481 99.736C7.43415 99.4907 7.50881 99.208 7.50881 98.888C7.50881 98.5573 7.43415 98.2693 7.28481 98.024C7.14615 97.7787 6.94881 97.5867 6.69281 97.448C6.43681 97.3093 6.13281 97.24 5.78081 97.24H3.66881V100.52ZM11.4034 107V98.264H13.6434V100.36L13.4834 100.056C13.6754 99.32 13.9901 98.824 14.4274 98.568C14.8754 98.3013 15.4034 98.168 16.0114 98.168H16.5234V100.248H15.7714C15.1848 100.248 14.7101 100.429 14.3474 100.792C13.9848 101.144 13.8034 101.645 13.8034 102.296V107H11.4034ZM17.5753 107V98.264H19.9753V107H17.5753ZM17.5753 97.48V95.08H19.9753V97.48H17.5753ZM21.7316 107V98.264H23.9716V99.992L23.8436 99.608C24.0462 99.0853 24.3716 98.7013 24.8196 98.456C25.2782 98.2 25.8116 98.072 26.4196 98.072C27.0809 98.072 27.6569 98.2107 28.1476 98.488C28.6489 98.7653 29.0382 99.1547 29.3156 99.656C29.5929 100.147 29.7316 100.723 29.7316 101.384V107H27.3316V101.896C27.3316 101.555 27.2622 101.261 27.1236 101.016C26.9956 100.771 26.8089 100.579 26.5636 100.44C26.3289 100.301 26.0516 100.232 25.7316 100.232C25.4222 100.232 25.1449 100.301 24.8996 100.44C24.6542 100.579 24.4622 100.771 24.3236 101.016C24.1956 101.261 24.1316 101.555 24.1316 101.896V107H21.7316ZM35.5177 107.096C34.4617 107.096 33.6404 106.813 33.0537 106.248C32.4777 105.672 32.1897 104.872 32.1897 103.848V100.344H30.7177V98.264H30.7977C31.2457 98.264 31.587 98.152 31.8217 97.928C32.067 97.704 32.1897 97.368 32.1897 96.92V96.28H34.5897V98.264H36.6377V100.344H34.5897V103.688C34.5897 103.987 34.643 104.237 34.7497 104.44C34.8564 104.632 35.0217 104.776 35.2457 104.872C35.4697 104.968 35.747 105.016 36.0777 105.016C36.1524 105.016 36.2377 105.011 36.3337 105C36.4297 104.989 36.531 104.979 36.6377 104.968V107C36.4777 107.021 36.2964 107.043 36.0937 107.064C35.891 107.085 35.699 107.096 35.5177 107.096ZM44.1831 107V101.8L40.2151 95.08H43.0471L45.9271 100.136H44.9191L47.7831 95.08H50.6151L46.6631 101.784V107H44.1831ZM54.5676 107.192C53.7036 107.192 52.9142 106.995 52.1996 106.6C51.4956 106.205 50.9302 105.667 50.5036 104.984C50.0876 104.291 49.8796 103.507 49.8796 102.632C49.8796 101.747 50.0876 100.963 50.5036 100.28C50.9302 99.5973 51.4956 99.0587 52.1996 98.664C52.9142 98.2693 53.7036 98.072 54.5676 98.072C55.4316 98.072 56.2156 98.2693 56.9196 98.664C57.6236 99.0587 58.1836 99.5973 58.5996 100.28C59.0262 100.963 59.2396 101.747 59.2396 102.632C59.2396 103.507 59.0262 104.291 58.5996 104.984C58.1836 105.667 57.6236 106.205 56.9196 106.6C56.2156 106.995 55.4316 107.192 54.5676 107.192ZM54.5676 105.032C55.0049 105.032 55.3836 104.931 55.7036 104.728C56.0342 104.525 56.2902 104.243 56.4716 103.88C56.6636 103.517 56.7596 103.101 56.7596 102.632C56.7596 102.163 56.6636 101.752 56.4716 101.4C56.2902 101.037 56.0342 100.755 55.7036 100.552C55.3836 100.339 55.0049 100.232 54.5676 100.232C54.1302 100.232 53.7462 100.339 53.4156 100.552C53.0849 100.755 52.8236 101.037 52.6316 101.4C52.4502 101.752 52.3596 102.163 52.3596 102.632C52.3596 103.101 52.4502 103.517 52.6316 103.88C52.8236 104.243 53.0849 104.525 53.4156 104.728C53.7462 104.931 54.1302 105.032 54.5676 105.032ZM63.7894 107.192C63.0854 107.192 62.4828 107.043 61.9814 106.744C61.4908 106.435 61.1174 106.008 60.8614 105.464C60.6054 104.92 60.4774 104.285 60.4774 103.56V98.264H62.8774V103.368C62.8774 103.699 62.9414 103.992 63.0694 104.248C63.2081 104.493 63.4001 104.685 63.6454 104.824C63.8908 104.963 64.1681 105.032 64.4774 105.032C64.7974 105.032 65.0748 104.963 65.3094 104.824C65.5548 104.685 65.7414 104.493 65.8694 104.248C66.0081 103.992 66.0774 103.699 66.0774 103.368V98.264H68.4774V107H66.2374V105.272L66.3654 105.656C66.1628 106.179 65.8321 106.568 65.3734 106.824C64.9254 107.069 64.3974 107.192 63.7894 107.192ZM70.2316 107V98.264H72.4716V100.36L72.3116 100.056C72.5036 99.32 72.8182 98.824 73.2556 98.568C73.7036 98.3013 74.2316 98.168 74.8396 98.168H75.3516V100.248H74.5996C74.0129 100.248 73.5382 100.429 73.1756 100.792C72.8129 101.144 72.6316 101.645 72.6316 102.296V107H70.2316ZM82.6544 107L78.5744 95.08H81.2944L84.3664 104.648H83.8224L86.8944 95.08H89.6144L85.5344 107H82.6544ZM90.6691 107V98.264H93.0691V107H90.6691ZM90.6691 97.48V95.08H93.0691V97.48H90.6691ZM98.2493 107.192C97.2893 107.192 96.452 106.968 95.7373 106.52C95.0333 106.061 94.5533 105.448 94.2973 104.68L96.0573 103.848C96.2813 104.317 96.5853 104.685 96.9693 104.952C97.3533 105.219 97.78 105.352 98.2493 105.352C98.5906 105.352 98.852 105.283 99.0333 105.144C99.2146 105.005 99.3053 104.813 99.3053 104.568C99.3053 104.44 99.2733 104.333 99.2093 104.248C99.1453 104.152 99.0493 104.067 98.9213 103.992C98.7933 103.917 98.6333 103.853 98.4413 103.8L96.9533 103.384C96.2386 103.181 95.6893 102.856 95.3053 102.408C94.9213 101.949 94.7293 101.411 94.7293 100.792C94.7293 100.248 94.868 99.7733 95.1453 99.368C95.4226 98.9627 95.812 98.648 96.3133 98.424C96.8146 98.1893 97.3906 98.072 98.0413 98.072C98.8946 98.072 99.6413 98.2747 100.281 98.68C100.932 99.0747 101.391 99.6347 101.657 100.36L99.8813 101.192C99.7533 100.829 99.5186 100.541 99.1773 100.328C98.8466 100.104 98.468 99.992 98.0413 99.992C97.732 99.992 97.4866 100.056 97.3053 100.184C97.1346 100.312 97.0493 100.488 97.0493 100.712C97.0493 100.829 97.0813 100.936 97.1453 101.032C97.2093 101.128 97.3106 101.213 97.4493 101.288C97.5986 101.363 97.78 101.432 97.9933 101.496L99.3853 101.912C100.111 102.125 100.665 102.451 101.049 102.888C101.433 103.315 101.625 103.843 101.625 104.472C101.625 105.016 101.481 105.491 101.193 105.896C100.916 106.301 100.527 106.621 100.025 106.856C99.524 107.08 98.932 107.192 98.2493 107.192ZM103.06 107V98.264H105.46V107H103.06ZM103.06 97.48V95.08H105.46V97.48H103.06ZM111.552 107.192C110.688 107.192 109.899 106.995 109.184 106.6C108.48 106.205 107.915 105.667 107.488 104.984C107.072 104.291 106.864 103.507 106.864 102.632C106.864 101.747 107.072 100.963 107.488 100.28C107.915 99.5973 108.48 99.0587 109.184 98.664C109.899 98.2693 110.688 98.072 111.552 98.072C112.416 98.072 113.2 98.2693 113.904 98.664C114.608 99.0587 115.168 99.5973 115.584 100.28C116.011 100.963 116.224 101.747 116.224 102.632C116.224 103.507 116.011 104.291 115.584 104.984C115.168 105.667 114.608 106.205 113.904 106.6C113.2 106.995 112.416 107.192 111.552 107.192ZM111.552 105.032C111.989 105.032 112.368 104.931 112.688 104.728C113.019 104.525 113.275 104.243 113.456 103.88C113.648 103.517 113.744 103.101 113.744 102.632C113.744 102.163 113.648 101.752 113.456 101.4C113.275 101.037 113.019 100.755 112.688 100.552C112.368 100.339 111.989 100.232 111.552 100.232C111.115 100.232 110.731 100.339 110.4 100.552C110.069 100.755 109.808 101.037 109.616 101.4C109.435 101.752 109.344 102.163 109.344 102.632C109.344 103.101 109.435 103.517 109.616 103.88C109.808 104.243 110.069 104.525 110.4 104.728C110.731 104.931 111.115 105.032 111.552 105.032ZM117.638 107V98.264H119.878V99.992L119.75 99.608C119.952 99.0853 120.278 98.7013 120.726 98.456C121.184 98.2 121.718 98.072 122.326 98.072C122.987 98.072 123.563 98.2107 124.054 98.488C124.555 98.7653 124.944 99.1547 125.222 99.656C125.499 100.147 125.638 100.723 125.638 101.384V107H123.238V101.896C123.238 101.555 123.168 101.261 123.03 101.016C122.902 100.771 122.715 100.579 122.47 100.44C122.235 100.301 121.958 100.232 121.638 100.232C121.328 100.232 121.051 100.301 120.806 100.44C120.56 100.579 120.368 100.771 120.23 101.016C120.102 101.261 120.038 101.555 120.038 101.896V107H117.638ZM128.096 109.64V108.44C128.469 108.355 128.773 108.189 129.008 107.944C129.253 107.709 129.413 107.395 129.488 107H128.416V104.6H130.816V105.992C130.816 107.005 130.587 107.821 130.128 108.44C129.669 109.059 128.992 109.459 128.096 109.64ZM142.103 107.192C141.249 107.192 140.455 107.037 139.719 106.728C138.993 106.419 138.359 105.987 137.815 105.432C137.271 104.877 136.844 104.227 136.535 103.48C136.236 102.733 136.087 101.917 136.087 101.032C136.087 100.147 136.236 99.3307 136.535 98.584C136.833 97.8267 137.255 97.176 137.799 96.632C138.343 96.0773 138.977 95.6507 139.703 95.352C140.439 95.0427 141.239 94.888 142.103 94.888C142.967 94.888 143.74 95.032 144.423 95.32C145.116 95.608 145.703 95.992 146.183 96.472C146.663 96.952 147.004 97.4853 147.207 98.072L145.015 99.128C144.812 98.552 144.455 98.0773 143.943 97.704C143.441 97.32 142.828 97.128 142.103 97.128C141.399 97.128 140.78 97.2933 140.247 97.624C139.713 97.9547 139.297 98.4133 138.999 99C138.711 99.576 138.567 100.253 138.567 101.032C138.567 101.811 138.711 102.493 138.999 103.08C139.297 103.667 139.713 104.125 140.247 104.456C140.78 104.787 141.399 104.952 142.103 104.952C142.828 104.952 143.441 104.765 143.943 104.392C144.455 104.008 144.812 103.528 145.015 102.952L147.207 104.008C147.004 104.595 146.663 105.128 146.183 105.608C145.703 106.088 145.116 106.472 144.423 106.76C143.74 107.048 142.967 107.192 142.103 107.192ZM148.622 107V98.264H150.862V100.36L150.702 100.056C150.894 99.32 151.209 98.824 151.646 98.568C152.094 98.3013 152.622 98.168 153.23 98.168H153.742V100.248H152.99C152.404 100.248 151.929 100.429 151.566 100.792C151.204 101.144 151.022 101.645 151.022 102.296V107H148.622ZM159.002 107.192C158.074 107.192 157.269 106.989 156.586 106.584C155.903 106.168 155.375 105.613 155.002 104.92C154.629 104.227 154.442 103.459 154.442 102.616C154.442 101.741 154.634 100.963 155.018 100.28C155.413 99.5973 155.941 99.0587 156.602 98.664C157.263 98.2693 158.01 98.072 158.842 98.072C159.535 98.072 160.149 98.184 160.682 98.408C161.215 98.6213 161.663 98.9253 162.026 99.32C162.399 99.7147 162.682 100.173 162.874 100.696C163.066 101.208 163.162 101.768 163.162 102.376C163.162 102.547 163.151 102.717 163.13 102.888C163.119 103.048 163.093 103.187 163.05 103.304H156.506V101.544H161.69L160.554 102.376C160.661 101.917 160.655 101.512 160.538 101.16C160.421 100.797 160.213 100.515 159.914 100.312C159.626 100.099 159.269 99.992 158.842 99.992C158.426 99.992 158.069 100.093 157.77 100.296C157.471 100.499 157.247 100.797 157.098 101.192C156.949 101.587 156.89 102.067 156.922 102.632C156.879 103.123 156.938 103.555 157.098 103.928C157.258 104.301 157.503 104.595 157.834 104.808C158.165 105.011 158.565 105.112 159.034 105.112C159.461 105.112 159.823 105.027 160.122 104.856C160.431 104.685 160.671 104.451 160.842 104.152L162.762 105.064C162.591 105.491 162.319 105.864 161.946 106.184C161.583 106.504 161.151 106.755 160.65 106.936C160.149 107.107 159.599 107.192 159.002 107.192ZM167.279 107.192C166.65 107.192 166.106 107.091 165.647 106.888C165.189 106.685 164.837 106.397 164.591 106.024C164.346 105.64 164.223 105.187 164.223 104.664C164.223 104.173 164.335 103.741 164.559 103.368C164.783 102.984 165.125 102.664 165.583 102.408C166.053 102.152 166.634 101.971 167.327 101.864L169.999 101.432V103.192L167.759 103.592C167.418 103.656 167.157 103.768 166.975 103.928C166.794 104.077 166.703 104.296 166.703 104.584C166.703 104.851 166.805 105.059 167.007 105.208C167.21 105.357 167.461 105.432 167.759 105.432C168.154 105.432 168.501 105.347 168.799 105.176C169.098 105.005 169.327 104.776 169.487 104.488C169.658 104.189 169.743 103.864 169.743 103.512V101.24C169.743 100.909 169.61 100.632 169.343 100.408C169.087 100.184 168.735 100.072 168.287 100.072C167.861 100.072 167.482 100.189 167.151 100.424C166.831 100.659 166.597 100.968 166.447 101.352L164.527 100.44C164.698 99.9493 164.97 99.528 165.343 99.176C165.717 98.824 166.165 98.552 166.687 98.36C167.21 98.168 167.781 98.072 168.399 98.072C169.135 98.072 169.786 98.2053 170.351 98.472C170.917 98.7387 171.354 99.112 171.663 99.592C171.983 100.061 172.143 100.611 172.143 101.24V107H169.903V105.592L170.447 105.496C170.191 105.88 169.909 106.2 169.599 106.456C169.29 106.701 168.943 106.883 168.559 107C168.175 107.128 167.749 107.192 167.279 107.192ZM177.955 107.096C176.899 107.096 176.078 106.813 175.491 106.248C174.915 105.672 174.627 104.872 174.627 103.848V100.344H173.155V98.264H173.235C173.683 98.264 174.025 98.152 174.259 97.928C174.505 97.704 174.627 97.368 174.627 96.92V96.28H177.027V98.264H179.075V100.344H177.027V103.688C177.027 103.987 177.081 104.237 177.187 104.44C177.294 104.632 177.459 104.776 177.683 104.872C177.907 104.968 178.185 105.016 178.515 105.016C178.59 105.016 178.675 105.011 178.771 105C178.867 104.989 178.969 104.979 179.075 104.968V107C178.915 107.021 178.734 107.043 178.531 107.064C178.329 107.085 178.137 107.096 177.955 107.096ZM184.69 107.192C183.762 107.192 182.956 106.989 182.274 106.584C181.591 106.168 181.063 105.613 180.69 104.92C180.316 104.227 180.13 103.459 180.13 102.616C180.13 101.741 180.322 100.963 180.706 100.28C181.1 99.5973 181.628 99.0587 182.29 98.664C182.951 98.2693 183.698 98.072 184.53 98.072C185.223 98.072 185.836 98.184 186.37 98.408C186.903 98.6213 187.351 98.9253 187.714 99.32C188.087 99.7147 188.37 100.173 188.562 100.696C188.754 101.208 188.85 101.768 188.85 102.376C188.85 102.547 188.839 102.717 188.818 102.888C188.807 103.048 188.78 103.187 188.738 103.304H182.194V101.544H187.378L186.242 102.376C186.348 101.917 186.343 101.512 186.226 101.16C186.108 100.797 185.9 100.515 185.602 100.312C185.314 100.099 184.956 99.992 184.53 99.992C184.114 99.992 183.756 100.093 183.458 100.296C183.159 100.499 182.935 100.797 182.786 101.192C182.636 101.587 182.578 102.067 182.61 102.632C182.567 103.123 182.626 103.555 182.786 103.928C182.946 104.301 183.191 104.595 183.522 104.808C183.852 105.011 184.252 105.112 184.722 105.112C185.148 105.112 185.511 105.027 185.81 104.856C186.119 104.685 186.359 104.451 186.53 104.152L188.45 105.064C188.279 105.491 188.007 105.864 187.634 106.184C187.271 106.504 186.839 106.755 186.338 106.936C185.836 107.107 185.287 107.192 184.69 107.192ZM195.442 107L192.434 98.264H194.914L197.026 104.568L196.162 104.552L198.514 98.264H200.594L202.93 104.552L202.066 104.568L204.178 98.264H206.674L203.65 107H201.57L199.138 100.248H199.97L197.522 107H195.442ZM207.732 107V98.264H210.132V107H207.732ZM207.732 97.48V95.08H210.132V97.48H207.732ZM216.096 107.096C215.04 107.096 214.218 106.813 213.632 106.248C213.056 105.672 212.768 104.872 212.768 103.848V100.344H211.296V98.264H211.376C211.824 98.264 212.165 98.152 212.4 97.928C212.645 97.704 212.768 97.368 212.768 96.92V96.28H215.168V98.264H217.216V100.344H215.168V103.688C215.168 103.987 215.221 104.237 215.328 104.44C215.434 104.632 215.6 104.776 215.824 104.872C216.048 104.968 216.325 105.016 216.656 105.016C216.73 105.016 216.816 105.011 216.912 105C217.008 104.989 217.109 104.979 217.216 104.968V107C217.056 107.021 216.874 107.043 216.672 107.064C216.469 107.085 216.277 107.096 216.096 107.096ZM218.622 107V94.888H221.022V99.992L220.734 99.608C220.937 99.0853 221.262 98.7013 221.71 98.456C222.169 98.2 222.702 98.072 223.31 98.072C223.972 98.072 224.548 98.2107 225.038 98.488C225.54 98.7653 225.929 99.1547 226.206 99.656C226.484 100.147 226.622 100.723 226.622 101.384V107H224.222V101.896C224.222 101.555 224.153 101.261 224.014 101.016C223.886 100.771 223.7 100.579 223.454 100.44C223.22 100.301 222.942 100.232 222.622 100.232C222.313 100.232 222.036 100.301 221.79 100.44C221.545 100.579 221.353 100.771 221.214 101.016C221.086 101.261 221.022 101.555 221.022 101.896V107H218.622ZM231.251 107V95.08H233.651L238.115 101H236.995L241.331 95.08H243.731V107H241.251V97.816L242.243 98.04L237.651 103.96H237.331L232.899 98.04L233.731 97.816V107H231.251ZM248.373 107.192C247.744 107.192 247.2 107.091 246.741 106.888C246.282 106.685 245.93 106.397 245.685 106.024C245.44 105.64 245.317 105.187 245.317 104.664C245.317 104.173 245.429 103.741 245.653 103.368C245.877 102.984 246.218 102.664 246.677 102.408C247.146 102.152 247.728 101.971 248.421 101.864L251.093 101.432V103.192L248.853 103.592C248.512 103.656 248.25 103.768 248.069 103.928C247.888 104.077 247.797 104.296 247.797 104.584C247.797 104.851 247.898 105.059 248.101 105.208C248.304 105.357 248.554 105.432 248.853 105.432C249.248 105.432 249.594 105.347 249.893 105.176C250.192 105.005 250.421 104.776 250.581 104.488C250.752 104.189 250.837 103.864 250.837 103.512V101.24C250.837 100.909 250.704 100.632 250.437 100.408C250.181 100.184 249.829 100.072 249.381 100.072C248.954 100.072 248.576 100.189 248.245 100.424C247.925 100.659 247.69 100.968 247.541 101.352L245.621 100.44C245.792 99.9493 246.064 99.528 246.437 99.176C246.81 98.824 247.258 98.552 247.781 98.36C248.304 98.168 248.874 98.072 249.493 98.072C250.229 98.072 250.88 98.2053 251.445 98.472C252.01 98.7387 252.448 99.112 252.757 99.592C253.077 100.061 253.237 100.611 253.237 101.24V107H250.997V105.592L251.541 105.496C251.285 105.88 251.002 106.2 250.693 106.456C250.384 106.701 250.037 106.883 249.653 107C249.269 107.128 248.842 107.192 248.373 107.192ZM259.285 107.192C258.411 107.192 257.621 106.995 256.917 106.6C256.224 106.195 255.669 105.645 255.253 104.952C254.848 104.259 254.645 103.48 254.645 102.616C254.645 101.752 254.848 100.979 255.253 100.296C255.659 99.6027 256.213 99.0587 256.917 98.664C257.621 98.2693 258.411 98.072 259.285 98.072C259.936 98.072 260.539 98.184 261.093 98.408C261.648 98.632 262.123 98.9467 262.517 99.352C262.912 99.7467 263.195 100.216 263.365 100.76L261.285 101.656C261.136 101.219 260.88 100.872 260.517 100.616C260.165 100.36 259.755 100.232 259.285 100.232C258.869 100.232 258.496 100.333 258.165 100.536C257.845 100.739 257.589 101.021 257.397 101.384C257.216 101.747 257.125 102.163 257.125 102.632C257.125 103.101 257.216 103.517 257.397 103.88C257.589 104.243 257.845 104.525 258.165 104.728C258.496 104.931 258.869 105.032 259.285 105.032C259.765 105.032 260.181 104.904 260.533 104.648C260.885 104.392 261.136 104.045 261.285 103.608L263.365 104.52C263.205 105.032 262.928 105.491 262.533 105.896C262.139 106.301 261.664 106.621 261.109 106.856C260.555 107.08 259.947 107.192 259.285 107.192ZM267.482 107.192C266.853 107.192 266.309 107.091 265.85 106.888C265.392 106.685 265.04 106.397 264.794 106.024C264.549 105.64 264.426 105.187 264.426 104.664C264.426 104.173 264.538 103.741 264.762 103.368C264.986 102.984 265.328 102.664 265.786 102.408C266.256 102.152 266.837 101.971 267.53 101.864L270.202 101.432V103.192L267.962 103.592C267.621 103.656 267.36 103.768 267.178 103.928C266.997 104.077 266.906 104.296 266.906 104.584C266.906 104.851 267.008 105.059 267.21 105.208C267.413 105.357 267.664 105.432 267.962 105.432C268.357 105.432 268.704 105.347 269.002 105.176C269.301 105.005 269.53 104.776 269.69 104.488C269.861 104.189 269.946 103.864 269.946 103.512V101.24C269.946 100.909 269.813 100.632 269.546 100.408C269.29 100.184 268.938 100.072 268.49 100.072C268.064 100.072 267.685 100.189 267.354 100.424C267.034 100.659 266.8 100.968 266.65 101.352L264.73 100.44C264.901 99.9493 265.173 99.528 265.546 99.176C265.92 98.824 266.368 98.552 266.89 98.36C267.413 98.168 267.984 98.072 268.602 98.072C269.338 98.072 269.989 98.2053 270.554 98.472C271.12 98.7387 271.557 99.112 271.866 99.592C272.186 100.061 272.346 100.611 272.346 101.24V107H270.106V105.592L270.65 105.496C270.394 105.88 270.112 106.2 269.802 106.456C269.493 106.701 269.146 106.883 268.762 107C268.378 107.128 267.952 107.192 267.482 107.192ZM274.107 107V98.264H276.347V100.36L276.187 100.056C276.379 99.32 276.693 98.824 277.131 98.568C277.579 98.3013 278.107 98.168 278.715 98.168H279.227V100.248H278.475C277.888 100.248 277.413 100.429 277.051 100.792C276.688 101.144 276.507 101.645 276.507 102.296V107H274.107ZM283.014 107L279.574 98.264H282.166L284.55 104.872H283.558L285.942 98.264H288.534L285.094 107H283.014ZM289.591 107V98.264H291.991V107H289.591ZM289.591 97.48V95.08H291.991V97.48H289.591Z" fill="white"/>
<path d="M52.1719 9.82031C53.0833 9.82031 53.9688 9.97656 54.8281 10.2891C55.7135 10.6016 56.5599 11.0573 57.3672 11.6562C57.4974 11.7865 57.6406 11.9167 57.7969 12.0469C57.9271 11.9167 58.0703 11.7865 58.2266 11.6562C59.0339 11.0573 59.8672 10.6016 60.7266 10.2891C61.612 9.97656 62.4974 9.82031 63.3828 9.82031C64.2943 9.82031 65.1797 9.97656 66.0391 10.2891C66.9245 10.6016 67.7578 11.0703 68.5391 11.6953C69.3464 12.2943 70.0495 13.1016 70.6484 14.1172C71.2734 15.1328 71.5859 16.3438 71.5859 17.75V31.8516C71.4297 33.4141 70.5703 34.2604 69.0078 34.3906C68.2786 34.3906 67.6406 34.1562 67.0938 33.6875C66.5729 33.1927 66.3125 32.5807 66.3125 31.8516V18.0625C66.3125 17.4375 66.1953 16.9167 65.9609 16.5C65.7266 16.0573 65.4661 15.7188 65.1797 15.4844C64.8932 15.224 64.5938 15.0417 64.2812 14.9375C63.9688 14.8073 63.6562 14.7422 63.3438 14.7422C63.0312 14.7422 62.7188 14.8073 62.4062 14.9375C62.1198 15.0417 61.8333 15.224 61.5469 15.4844C61.2604 15.7188 61 16.0573 60.7656 16.5C60.5312 16.9167 60.401 17.4375 60.375 18.0625V31.8516C60.2188 33.4141 59.3594 34.2604 57.7969 34.3906C57.0677 34.3906 56.4297 34.1562 55.8828 33.6875C55.362 33.1927 55.1016 32.5807 55.1016 31.8516V18.0625C55.1016 17.4375 54.9844 16.9167 54.75 16.5C54.5156 16.0573 54.2552 15.7188 53.9688 15.4844C53.6823 15.224 53.3828 15.0417 53.0703 14.9375C52.7578 14.8073 52.4453 14.7422 52.1328 14.7422C51.8203 14.7422 51.5078 14.8073 51.1953 14.9375C50.9089 15.0417 50.6224 15.224 50.3359 15.4844C50.0495 15.7188 49.7891 16.0573 49.5547 16.5C49.3203 16.9167 49.1901 17.4375 49.1641 18.0625V31.8516C49.0339 33.4141 48.1875 34.2604 46.625 34.3906C45.8958 34.3906 45.2578 34.1562 44.7109 33.6875C44.1901 33.1927 43.9297 32.5807 43.9297 31.8516V17.75C43.9818 16.3438 44.3073 15.1328 44.9062 14.1172C45.5052 13.1016 46.2083 12.2943 47.0156 11.6953C47.8229 11.0703 48.6562 10.6016 49.5156 10.2891C50.401 9.97656 51.2865 9.82031 52.1719 9.82031ZM83.7734 10.875H85.5703H98.8516C99.5807 10.901 100.18 11.1745 100.648 11.6953C101.143 12.2161 101.391 12.8411 101.391 13.5703C101.26 15.1328 100.414 15.9792 98.8516 16.1094H85.1016C84.112 16.1615 83.2917 16.5391 82.6406 17.2422C81.9896 17.9453 81.5078 18.7526 81.1953 19.6641C80.9089 20.5495 80.7656 21.4609 80.7656 22.3984C80.7656 23.3359 80.9089 24.2604 81.1953 25.1719C81.5078 26.0573 81.9896 26.8516 82.6406 27.5547C83.2917 28.2578 84.112 28.6354 85.1016 28.6875H98.8516C99.5807 28.7135 100.18 28.987 100.648 29.5078C101.143 30.0286 101.391 30.6536 101.391 31.3828C101.365 32.0859 101.104 32.6849 100.609 33.1797C100.141 33.6484 99.5547 33.8958 98.8516 33.9219H84.5156H83.7734C81.9505 33.8177 80.4401 33.1276 79.2422 31.8516C78.0703 30.5495 77.224 29.0781 76.7031 27.4375C76.2083 25.7969 75.9609 24.1172 75.9609 22.3984C75.9609 20.6797 76.2214 19 76.7422 17.3594C77.263 15.7188 78.1094 14.2604 79.2812 12.9844C80.4531 11.6823 81.9505 10.9792 83.7734 10.875ZM101.312 22.2422C101.312 22.9714 101.052 23.5833 100.531 24.0781C100.036 24.599 99.4245 24.8594 98.6953 24.8594H86.8984C86.1693 24.8594 85.5443 24.612 85.0234 24.1172C84.5286 23.5964 84.2812 22.9714 84.2812 22.2422C84.2812 21.513 84.5286 20.888 85.0234 20.3672C85.5443 19.8724 86.1693 19.625 86.8984 19.625H98.6953C99.4245 19.625 100.036 19.8854 100.531 20.4062C101.052 20.901 101.312 21.513 101.312 22.2422ZM114.203 16.1094C113.214 16.1615 112.38 16.5391 111.703 17.2422C111.052 17.9453 110.583 18.7526 110.297 19.6641C110.01 20.5495 109.867 21.4609 109.867 22.3984C109.867 23.3359 109.997 24.2604 110.258 25.1719C110.544 26.0833 111.026 26.8906 111.703 27.5938C112.38 28.2708 113.214 28.6354 114.203 28.6875H127.094C128.734 28.8438 129.633 29.7422 129.789 31.3828C129.763 32.112 129.49 32.724 128.969 33.2188C128.448 33.6875 127.823 33.9219 127.094 33.9219H114.633H112.836C111.013 33.8177 109.516 33.1276 108.344 31.8516C107.172 30.5495 106.326 29.0781 105.805 27.4375C105.31 25.7969 105.062 24.1172 105.062 22.3984C105.062 21.1224 105.206 19.8594 105.492 18.6094C105.779 17.3594 106.221 16.1745 106.82 15.0547C107.445 13.9089 108.266 12.9323 109.281 12.125C110.323 11.3177 111.508 10.901 112.836 10.875H113.578H127.094C128.734 11.0312 129.633 11.9297 129.789 13.5703C129.789 14.2995 129.516 14.9115 128.969 15.4062C128.448 15.875 127.823 16.1094 127.094 16.1094H114.203ZM142.172 27.8672C142.172 27.138 142.419 26.526 142.914 26.0312C143.435 25.5104 144.06 25.25 144.789 25.25H150.766L149.75 22.3594C149.333 21.2917 148.917 20.2891 148.5 19.3516C148.109 18.388 147.654 17.5156 147.133 16.7344C146.664 15.9531 146.13 15.5365 145.531 15.4844C144.906 15.5365 144.346 15.9531 143.852 16.7344C143.357 17.5156 142.901 18.388 142.484 19.3516C142.094 20.2891 141.69 21.2917 141.273 22.3594L137.562 32.5156C137.302 33.0625 136.964 33.5182 136.547 33.8828C136.156 34.2214 135.557 34.3906 134.75 34.3906C133.995 34.3906 133.37 34.1302 132.875 33.6094C132.406 33.0885 132.198 32.4635 132.25 31.7344C132.276 31.3958 132.354 31.0833 132.484 30.7969L136.781 19.7031C137.979 16.7865 139.177 14.4297 140.375 12.6328C141.547 10.862 143.266 9.96354 145.531 9.9375C147.771 9.96354 149.477 10.862 150.648 12.6328C151.846 14.3776 153.044 16.7344 154.242 19.7031L158.539 30.7969C158.669 31.0833 158.747 31.3958 158.773 31.7344C158.826 32.4635 158.604 33.0885 158.109 33.6094C157.641 34.1302 157.029 34.3906 156.273 34.3906C155.414 34.3906 154.776 34.2214 154.359 33.8828C153.969 33.5182 153.643 33.0625 153.383 32.5156L152.641 30.4844H144.789C144.06 30.4844 143.448 30.224 142.953 29.7031C142.432 29.2083 142.172 28.5964 142.172 27.8672ZM167.953 31.9297C167.797 33.4922 166.938 34.3385 165.375 34.4688C164.646 34.4688 164.008 34.2344 163.461 33.7656C162.94 33.2708 162.68 32.6589 162.68 31.9297V13.4141C162.706 12.6849 162.979 12.0859 163.5 11.6172C164.021 11.1224 164.646 10.875 165.375 10.875H167.289H172.094H181.742C181.898 10.875 182.055 10.888 182.211 10.9141H182.445C184.268 10.9661 185.766 11.3828 186.938 12.1641C188.109 12.9453 188.956 13.8438 189.477 14.8594C189.997 15.849 190.258 16.8516 190.258 17.8672C190.258 18.9089 189.997 19.9375 189.477 20.9531C188.982 21.9427 188.135 22.8281 186.938 23.6094C185.766 24.3906 184.268 24.8073 182.445 24.8594H175.57C175.779 26.1615 176.208 27.125 176.859 27.75C177.484 28.375 178.279 28.6875 179.242 28.6875H187.68C188.409 28.7135 189.008 28.987 189.477 29.5078C189.971 30.0286 190.219 30.6536 190.219 31.3828C190.193 32.0859 189.932 32.6849 189.438 33.1797C188.969 33.6484 188.383 33.8958 187.68 33.9219H178.539C176.612 33.9479 174.867 33.1927 173.305 31.6562C171.742 30.1198 170.792 28.2969 170.453 26.1875C169.984 23.8438 169.75 22.5286 169.75 22.2422C169.75 21.513 169.997 20.901 170.492 20.4062C171.013 19.8854 171.638 19.625 172.367 19.625H182.68C183.174 19.599 183.578 19.4948 183.891 19.3125C184.229 19.1042 184.477 18.8828 184.633 18.6484C184.789 18.388 184.867 18.1276 184.867 17.8672C184.867 17.6068 184.789 17.3594 184.633 17.125C184.477 16.8646 184.229 16.6432 183.891 16.4609C183.578 16.2526 183.174 16.1354 182.68 16.1094H172.094H168.969C168.292 16.1354 167.953 16.474 167.953 17.125V31.9297ZM201.938 31.8516C200.74 30.0547 199.542 27.6979 198.344 24.7812L194.047 13.6875C193.917 13.401 193.839 13.0885 193.812 12.75C193.76 12.0208 193.969 11.3958 194.438 10.875C194.932 10.3542 195.557 10.0938 196.312 10.0938C197.12 10.0938 197.719 10.276 198.109 10.6406C198.526 10.9792 198.865 11.4219 199.125 11.9688L202.836 22.125C203.253 23.1927 203.656 24.2083 204.047 25.1719C204.464 26.1094 204.919 26.9688 205.414 27.75C205.909 28.5312 206.469 28.9479 207.094 29C207.693 28.9479 208.227 28.5312 208.695 27.75C209.216 26.9688 209.672 26.1094 210.062 25.1719C210.479 24.2083 210.896 23.1927 211.312 22.125L214.945 11.9688C215.206 11.4219 215.531 10.9792 215.922 10.6406C216.339 10.276 216.977 10.0938 217.836 10.0938C218.591 10.0938 219.203 10.3542 219.672 10.875C220.167 11.3958 220.388 12.0208 220.336 12.75C220.31 13.0885 220.232 13.401 220.102 13.6875L215.805 24.7812C214.607 27.75 213.409 30.1198 212.211 31.8906C211.039 33.6354 209.333 34.5208 207.094 34.5469C204.828 34.5208 203.109 33.6224 201.938 31.8516ZM223.539 31.3047C223.539 30.5755 223.786 29.9635 224.281 29.4688C224.802 28.9479 225.427 28.6875 226.156 28.6875H233.656V16.1094H226.156C225.427 16.1094 224.815 15.849 224.32 15.3281C223.799 14.8333 223.539 14.2214 223.539 13.4922C223.539 12.763 223.786 12.151 224.281 11.6562C224.802 11.1354 225.427 10.875 226.156 10.875H246.391C247.12 10.875 247.745 11.1224 248.266 11.6172C248.76 12.138 249.008 12.763 249.008 13.4922C249.008 14.2214 248.747 14.8464 248.227 15.3672C247.732 15.862 247.12 16.1094 246.391 16.1094H238.93V28.6875H246.391C247.12 28.6875 247.745 28.9349 248.266 29.4297C248.76 29.9505 249.008 30.5755 249.008 31.3047C249.008 32.0339 248.747 32.6589 248.227 33.1797C247.732 33.6745 247.12 33.9219 246.391 33.9219H226.156C225.427 33.9219 224.815 33.6615 224.32 33.1406C223.799 32.6458 223.539 32.0339 223.539 31.3047ZM61.8789 71.8516C61.7227 73.4141 60.8633 74.2604 59.3008 74.3906C58.5716 74.3906 57.9336 74.1562 57.3867 73.6875C56.8659 73.1927 56.6055 72.5807 56.6055 71.8516V53.4141C56.6315 52.6849 56.9049 52.0859 57.4258 51.6172C57.9466 51.1224 58.5716 50.875 59.3008 50.875H75.707C77.9987 50.9531 79.7305 51.4609 80.9023 52.3984C82.0742 53.3099 82.9206 54.3516 83.4414 55.5234C83.9622 56.6953 84.2227 57.8802 84.2227 59.0781C84.2227 60.3281 83.9622 61.5391 83.4414 62.7109C82.9466 63.8828 82.1003 64.9375 80.9023 65.875C79.7305 66.7865 78.2331 67.2292 76.4102 67.2031H66.5664C65.8372 67.2031 65.2253 66.9427 64.7305 66.4219C64.2096 65.9271 63.9492 65.3151 63.9492 64.5859C63.9492 63.8568 64.1966 63.2448 64.6914 62.75C65.2122 62.2292 65.8372 61.9688 66.5664 61.9688H76.6445C77.1393 61.9688 77.543 61.8125 77.8555 61.5C78.194 61.1615 78.4414 60.7839 78.5977 60.3672C78.7539 59.9245 78.832 59.4818 78.832 59.0391C78.832 58.6224 78.7539 58.2057 78.5977 57.7891C78.4414 57.3464 78.194 56.9688 77.8555 56.6562C77.543 56.3177 77.1393 56.1354 76.6445 56.1094H62.8945C62.2174 56.1354 61.8789 56.474 61.8789 57.125V71.8516ZM93.6367 71.9297C93.4805 73.4922 92.6211 74.3385 91.0586 74.4688C90.3294 74.4688 89.6914 74.2344 89.1445 73.7656C88.6237 73.2708 88.3633 72.6589 88.3633 71.9297V53.4141C88.3893 52.6849 88.6628 52.0859 89.1836 51.6172C89.7044 51.1224 90.3294 50.875 91.0586 50.875H92.9727H97.7773H107.426C107.582 50.875 107.738 50.888 107.895 50.9141H108.129C109.952 50.9661 111.449 51.3828 112.621 52.1641C113.793 52.9453 114.639 53.8438 115.16 54.8594C115.681 55.849 115.941 56.8516 115.941 57.8672C115.941 58.9089 115.681 59.9375 115.16 60.9531C114.665 61.9427 113.819 62.8281 112.621 63.6094C111.449 64.3906 109.952 64.8073 108.129 64.8594H101.254C101.462 66.1615 101.892 67.125 102.543 67.75C103.168 68.375 103.962 68.6875 104.926 68.6875H113.363C114.092 68.7135 114.691 68.987 115.16 69.5078C115.655 70.0286 115.902 70.6536 115.902 71.3828C115.876 72.0859 115.616 72.6849 115.121 73.1797C114.652 73.6484 114.066 73.8958 113.363 73.9219H104.223C102.296 73.9479 100.551 73.1927 98.9883 71.6562C97.4258 70.1198 96.4753 68.2969 96.1367 66.1875C95.668 63.8438 95.4336 62.5286 95.4336 62.2422C95.4336 61.513 95.681 60.901 96.1758 60.4062C96.6966 59.8854 97.3216 59.625 98.0508 59.625H108.363C108.858 59.599 109.262 59.4948 109.574 59.3125C109.913 59.1042 110.16 58.8828 110.316 58.6484C110.473 58.388 110.551 58.1276 110.551 57.8672C110.551 57.6068 110.473 57.3594 110.316 57.125C110.16 56.8646 109.913 56.6432 109.574 56.4609C109.262 56.2526 108.858 56.1354 108.363 56.1094H97.7773H94.6523C93.9753 56.1354 93.6367 56.474 93.6367 57.125V71.9297ZM119.34 71.3047C119.34 70.5755 119.587 69.9635 120.082 69.4688C120.603 68.9479 121.228 68.6875 121.957 68.6875H129.457V56.1094H121.957C121.228 56.1094 120.616 55.849 120.121 55.3281C119.6 54.8333 119.34 54.2214 119.34 53.4922C119.34 52.763 119.587 52.151 120.082 51.6562C120.603 51.1354 121.228 50.875 121.957 50.875H142.191C142.921 50.875 143.546 51.1224 144.066 51.6172C144.561 52.138 144.809 52.763 144.809 53.4922C144.809 54.2214 144.548 54.8464 144.027 55.3672C143.533 55.862 142.921 56.1094 142.191 56.1094H134.73V68.6875H142.191C142.921 68.6875 143.546 68.9349 144.066 69.4297C144.561 69.9505 144.809 70.5755 144.809 71.3047C144.809 72.0339 144.548 72.6589 144.027 73.1797C143.533 73.6745 142.921 73.9219 142.191 73.9219H121.957C121.228 73.9219 120.616 73.6615 120.121 73.1406C119.6 72.6458 119.34 72.0339 119.34 71.3047ZM161.293 49.8203C162.647 49.8203 163.975 49.9766 165.277 50.2891C166.605 50.6016 167.868 51.0703 169.066 51.6953C170.264 52.2943 171.319 53.1016 172.23 54.1172C173.168 55.1328 173.676 56.3438 173.754 57.75V59.3906V71.8516C173.598 73.4141 172.738 74.2604 171.176 74.3906C170.447 74.3906 169.809 74.1562 169.262 73.6875C168.741 73.1927 168.48 72.5807 168.48 71.8516V58.9609C168.428 58.1536 168.116 57.4896 167.543 56.9688C166.996 56.4219 166.371 55.9922 165.668 55.6797C164.991 55.3672 164.275 55.1328 163.52 54.9766C162.79 54.8203 162.048 54.7422 161.293 54.7422C160.538 54.7422 159.783 54.8203 159.027 54.9766C158.298 55.1328 157.582 55.3672 156.879 55.6797C156.202 55.9922 155.577 56.4219 155.004 56.9688C154.457 57.4896 154.158 58.1536 154.105 58.9609V71.8516C153.975 73.4141 153.129 74.2604 151.566 74.3906C150.837 74.3906 150.199 74.1562 149.652 73.6875C149.132 73.1927 148.871 72.5807 148.871 71.8516V59.3906V57.75C148.949 56.3438 149.444 55.1328 150.355 54.1172C151.267 53.1016 152.322 52.2943 153.52 51.6953C154.717 51.0703 155.967 50.6016 157.27 50.2891C158.598 49.9766 159.939 49.8203 161.293 49.8203ZM177.934 53.4922C177.934 52.763 178.181 52.151 178.676 51.6562C179.197 51.1354 179.822 50.875 180.551 50.875H203.285C204.014 50.875 204.639 51.1224 205.16 51.6172C205.655 52.138 205.902 52.763 205.902 53.4922C205.902 54.2214 205.642 54.8464 205.121 55.3672C204.626 55.862 204.014 56.1094 203.285 56.1094H194.574V71.9297C194.418 73.4922 193.559 74.3385 191.996 74.4688C191.267 74.4688 190.629 74.2344 190.082 73.7656C189.561 73.2708 189.301 72.6589 189.301 71.9297V56.1094H180.551C179.822 56.1094 179.21 55.849 178.715 55.3281C178.194 54.8333 177.934 54.2214 177.934 53.4922ZM235.277 53.4922C235.277 54.2214 235.017 54.8333 234.496 55.3281C234.001 55.849 233.389 56.1094 232.66 56.1094H217.035C216.54 56.1354 216.124 56.2526 215.785 56.4609C215.473 56.6432 215.238 56.8646 215.082 57.125C214.926 57.3594 214.848 57.6068 214.848 57.8672C214.848 58.1276 214.926 58.388 215.082 58.6484C215.238 58.8828 215.473 59.1042 215.785 59.3125C216.124 59.4948 216.54 59.599 217.035 59.625H228.129C229.952 59.6771 231.449 60.1068 232.621 60.9141C233.819 61.6953 234.665 62.6068 235.16 63.6484C235.681 64.6641 235.941 65.7057 235.941 66.7734C235.941 67.8151 235.681 68.8568 235.16 69.8984C234.639 70.9141 233.793 71.8255 232.621 72.6328C231.449 73.4141 229.952 73.8047 228.129 73.8047H227.895C227.738 73.8307 227.582 73.8438 227.426 73.8438H212.66C211.931 73.8438 211.306 73.5964 210.785 73.1016C210.29 72.5807 210.043 71.9557 210.043 71.2266C210.043 70.4974 210.303 69.8854 210.824 69.3906C211.319 68.8698 211.931 68.6094 212.66 68.6094H228.363C228.858 68.6354 229.262 68.5443 229.574 68.3359C229.913 68.1276 230.16 67.8932 230.316 67.6328C230.473 67.3464 230.551 67.0599 230.551 66.7734C230.551 66.5911 230.473 66.3438 230.316 66.0312C230.16 65.6927 229.913 65.4193 229.574 65.2109C229.262 65.0026 228.858 64.8854 228.363 64.8594H217.27C215.447 64.8073 213.936 64.3906 212.738 63.6094C211.566 62.8281 210.72 61.9427 210.199 60.9531C209.704 59.9375 209.457 58.9089 209.457 57.8672C209.457 56.8516 209.717 55.849 210.238 54.8594C210.759 53.8438 211.605 52.9453 212.777 52.1641C213.949 51.3828 215.447 50.9661 217.27 50.9141H217.504C217.66 50.888 217.816 50.875 217.973 50.875H232.66C233.389 50.875 234.001 51.1354 234.496 51.6562C235.017 52.151 235.277 52.763 235.277 53.4922Z" fill="white"/>
</svg>
