<svg width="24" height="24" viewBox="0 0 24 24" fill="none" xmlns="http://www.w3.org/2000/svg">
<path fill-rule="evenodd" clip-rule="evenodd" d="M17.5097 4.34789C15.9811 3.24766 14.1579 2.63041 12.2753 2.57567C10.3927 2.52094 8.53679 3.03123 6.9468 4.0408C5.35681 5.05036 4.10557 6.51294 3.35432 8.24006C2.60308 9.96717 2.38625 11.8797 2.73177 13.7311C2.7887 14.0638 2.7126 14.4055 2.51989 14.6825C2.32719 14.9595 2.03331 15.1497 1.70165 15.212C1.36999 15.2744 1.02711 15.2038 0.746983 15.0157C0.46685 14.8275 0.271906 14.5367 0.204193 14.2061C-0.242668 11.8146 0.0478267 9.34382 1.03717 7.12118C2.02651 4.89853 3.66798 3.02905 5.74399 1.76053C7.81999 0.49202 10.2325 -0.115619 12.6617 0.0181648C15.0909 0.151949 17.4221 1.02084 19.3462 2.50965L20.3957 1.46021C20.5155 1.3401 20.6682 1.25823 20.8346 1.22496C21.001 1.1917 21.1734 1.20854 21.3302 1.27334C21.487 1.33815 21.6211 1.44802 21.7154 1.58903C21.8097 1.73005 21.8601 1.89588 21.8601 2.06553V5.99751C21.8601 6.2249 21.7698 6.44298 21.609 6.60377C21.4482 6.76456 21.2301 6.8549 21.0027 6.8549H17.0707C16.9014 6.85452 16.736 6.80403 16.5954 6.7098C16.4547 6.61556 16.3451 6.4818 16.2804 6.32536C16.2157 6.16893 16.1987 5.99683 16.2316 5.83076C16.2645 5.66469 16.3459 5.51209 16.4654 5.39219L17.5097 4.34789ZM22.2956 8.76687C22.6308 8.70366 22.9774 8.77618 23.2591 8.96849C23.5408 9.1608 23.7346 9.45713 23.7978 9.79231C24.245 12.1841 23.9547 14.6553 22.9653 16.8783C21.9759 19.1013 20.3342 20.9711 18.2579 22.2397C16.1815 23.5083 13.7686 24.1159 11.3391 23.9818C8.90954 23.8476 6.57815 22.9782 4.65404 21.4888L3.60459 22.54C3.48468 22.6602 3.33177 22.7421 3.16525 22.7753C2.99873 22.8085 2.8261 22.7915 2.66925 22.7265C2.51239 22.6615 2.37837 22.5513 2.28418 22.4101C2.18999 22.2688 2.13987 22.1027 2.14018 21.9329V18.0009C2.14018 17.7735 2.23051 17.5555 2.3913 17.3947C2.55209 17.2339 2.77017 17.1436 2.99756 17.1436H6.92954C7.09934 17.1432 7.26541 17.1934 7.40669 17.2876C7.54797 17.3817 7.6581 17.5158 7.72312 17.6726C7.78814 17.8295 7.80512 18.0021 7.77191 18.1686C7.7387 18.3351 7.65679 18.4881 7.53657 18.608L6.49056 19.6523C8.01922 20.7525 9.84232 21.3698 11.725 21.4245C13.6076 21.4792 15.4635 20.9689 17.0535 19.9594C18.6435 18.9498 19.8947 17.4872 20.6459 15.7601C21.3972 14.033 21.614 12.1205 21.2685 10.269C21.2372 10.1028 21.2391 9.93207 21.2739 9.76657C21.3087 9.60108 21.3758 9.44407 21.4714 9.30454C21.5669 9.16501 21.6891 9.0457 21.8308 8.95344C21.9726 8.86118 22.1311 8.79778 22.2974 8.76687H22.2956ZM13.0753 6.26673C13.0753 5.92564 12.9398 5.59852 12.6986 5.35733C12.4574 5.11614 12.1303 4.98065 11.7892 4.98065C11.4481 4.98065 11.121 5.11614 10.8798 5.35733C10.6386 5.59852 10.5031 5.92564 10.5031 6.26673V6.8549C9.83273 6.96582 9.22194 7.30692 8.77587 7.81953C8.32979 8.33213 8.07632 8.98418 8.05906 9.66348C8.0418 10.3428 8.26184 11.0069 8.68132 11.5414C9.10079 12.076 9.69347 12.4477 10.3574 12.5925L12.518 13.0641C12.6461 13.0966 12.7582 13.1743 12.8337 13.2828C12.9091 13.3913 12.9428 13.5235 12.9286 13.6549C12.9145 13.7863 12.8533 13.9082 12.7564 13.9981C12.6596 14.0881 12.5335 14.14 12.4014 14.1444H11.177C11.0643 14.144 10.9545 14.1089 10.8625 14.0438C10.7704 13.9788 10.7006 13.887 10.6626 13.7809C10.6063 13.6216 10.5192 13.4749 10.4062 13.3492C10.2932 13.2236 10.1566 13.1214 10.0041 13.0486C9.85168 12.9757 9.68635 12.9336 9.51762 12.9247C9.34888 12.9157 9.18003 12.9401 9.02071 12.9964C8.86139 13.0527 8.71472 13.1398 8.58907 13.2528C8.46342 13.3658 8.36126 13.5024 8.28841 13.6548C8.21556 13.8073 8.17346 13.9726 8.1645 14.1414C8.15554 14.3101 8.17991 14.4789 8.2362 14.6383C8.41264 15.1373 8.71313 15.5833 9.10939 15.9343C9.50566 16.2853 9.98469 16.5297 10.5014 16.6446V17.2653C10.5014 17.6064 10.6369 17.9335 10.8781 18.1747C11.1193 18.4159 11.4464 18.5514 11.7875 18.5514C12.1286 18.5514 12.4557 18.4159 12.6969 18.1747C12.9381 17.9335 13.0736 17.6064 13.0736 17.2653V16.6446C13.7663 16.4893 14.3853 16.1026 14.8286 15.5481C15.2719 14.9937 15.5129 14.3047 15.5119 13.5948C15.5109 12.8849 15.268 12.1966 14.8231 11.6434C14.3783 11.0903 13.7581 10.7052 13.065 10.552L10.9044 10.0787C10.8206 10.0598 10.7466 10.0107 10.6967 9.94072C10.6467 9.87078 10.6243 9.7849 10.6336 9.69946C10.6429 9.61403 10.6834 9.53502 10.7472 9.4775C10.8111 9.41999 10.8939 9.38799 10.9798 9.38762H12.3997C12.5124 9.38805 12.6222 9.42317 12.7143 9.48822C12.8063 9.55326 12.8761 9.64506 12.9141 9.75115C13.0278 10.0729 13.2647 10.3363 13.5726 10.4835C13.725 10.5563 13.8904 10.5984 14.0591 10.6074C14.2278 10.6163 14.3967 10.592 14.556 10.5357C14.7153 10.4794 14.862 10.3922 14.9876 10.2793C15.1133 10.1663 15.2155 10.0297 15.2883 9.87719C15.3612 9.72473 15.4033 9.55941 15.4122 9.39067C15.4212 9.22193 15.3968 9.05309 15.3405 8.89376C15.1639 8.39448 14.8632 7.94834 14.4666 7.59736C14.07 7.24637 13.5906 7.00208 13.0736 6.88748V6.27016L13.0753 6.26673Z" fill="white"/>
</svg>
