<svg width="25" height="30" viewBox="0 0 25 30" fill="none" xmlns="http://www.w3.org/2000/svg">
<path fill-rule="evenodd" clip-rule="evenodd" d="M1.04643 1.03412C-1.06437e-07 2.06824 0 3.73059 0 7.05882V22.9412C0 26.2694 -1.06437e-07 27.9318 1.04643 28.9659C2.09286 30 3.775 30 7.14286 30H17.8571C21.225 30 22.9071 30 23.9536 28.9659C25 27.9318 25 26.2694 25 22.9412V7.05882C25 3.73059 25 2.06824 23.9536 1.03412C22.9071 -1.05185e-07 21.225 0 17.8571 0H7.14286C3.775 0 2.09286 -1.05185e-07 1.04643 1.03412ZM7.14286 7.05882C6.66926 7.05882 6.21505 7.24475 5.88017 7.57569C5.54528 7.90664 5.35714 8.3555 5.35714 8.82353C5.35714 9.29156 5.54528 9.74042 5.88017 10.0714C6.21505 10.4023 6.66926 10.5882 7.14286 10.5882H17.8571C18.3307 10.5882 18.7849 10.4023 19.1198 10.0714C19.4547 9.74042 19.6429 9.29156 19.6429 8.82353C19.6429 8.3555 19.4547 7.90664 19.1198 7.57569C18.7849 7.24475 18.3307 7.05882 17.8571 7.05882H7.14286ZM7.14286 14.1176C6.66926 14.1176 6.21505 14.3036 5.88017 14.6345C5.54528 14.9655 5.35714 15.4143 5.35714 15.8824C5.35714 16.3504 5.54528 16.7992 5.88017 17.1302C6.21505 17.4611 6.66926 17.6471 7.14286 17.6471H17.8571C18.3307 17.6471 18.7849 17.4611 19.1198 17.1302C19.4547 16.7992 19.6429 16.3504 19.6429 15.8824C19.6429 15.4143 19.4547 14.9655 19.1198 14.6345C18.7849 14.3036 18.3307 14.1176 17.8571 14.1176H7.14286ZM7.14286 21.1765C6.66926 21.1765 6.21505 21.3624 5.88017 21.6933C5.54528 22.0243 5.35714 22.4731 5.35714 22.9412C5.35714 23.4092 5.54528 23.8581 5.88017 24.189C6.21505 24.52 6.66926 24.7059 7.14286 24.7059H14.2857C14.7593 24.7059 15.2135 24.52 15.5484 24.189C15.8833 23.8581 16.0714 23.4092 16.0714 22.9412C16.0714 22.4731 15.8833 22.0243 15.5484 21.6933C15.2135 21.3624 14.7593 21.1765 14.2857 21.1765H7.14286Z" fill="#CAC6C6"/>
</svg>
