<svg width="24" height="24" viewBox="0 0 24 24" fill="none" xmlns="http://www.w3.org/2000/svg">
<path fill-rule="evenodd" clip-rule="evenodd" d="M0.501293 0.94052H10.0259C10.3027 0.94052 10.5272 1.16494 10.5272 1.44181V10.9664C10.5272 11.2433 10.3027 11.4677 10.0259 11.4677H0.501293C0.224423 11.4677 0 11.2433 0 10.9664V1.44181C0 1.16494 0.224423 0.94052 0.501293 0.94052ZM18.1817 0.146816L23.8532 5.81832C24.0489 6.01408 24.0489 6.33146 23.8532 6.52724L18.1817 12.1987C17.9859 12.3945 17.6685 12.3945 17.4728 12.1987L11.8013 6.52721C11.6055 6.33146 11.6055 6.01408 11.8013 5.81829L17.4728 0.146816C17.6685 -0.0489387 17.9859 -0.0489387 18.1817 0.146816ZM0.501293 13.4728H10.0259C10.3027 13.4728 10.5272 13.6973 10.5272 13.9741V23.4987C10.5272 23.7756 10.3027 24 10.0259 24H0.501293C0.224423 24 0 23.7756 0 23.4987V13.9741C0 13.6973 0.224423 13.4728 0.501293 13.4728ZM13.0336 13.4728H22.5582C22.8351 13.4728 23.0595 13.6973 23.0595 13.9741V23.4987C23.0595 23.7756 22.8351 24 22.5582 24H13.0336C12.7567 24 12.5323 23.7756 12.5323 23.4987V13.9741C12.5323 13.6973 12.7567 13.4728 13.0336 13.4728Z" fill="white"/>
</svg>
