<svg width="9" height="11" viewBox="0 0 9 11" fill="none" xmlns="http://www.w3.org/2000/svg">
<path d="M3.68664 7.67759C3.68908 7.62395 3.77733 7.6025 3.80366 7.64931C3.92751 7.86873 4.13815 8.19103 4.37708 8.33779C4.616 8.48456 4.99925 8.52601 5.25085 8.53673C5.30449 8.53917 5.32545 8.62743 5.27864 8.65376C5.05923 8.77761 4.73741 8.98825 4.59064 9.22717C4.44388 9.4661 4.40243 9.84935 4.3917 10.1009C4.38927 10.1546 4.30052 10.1756 4.27468 10.1287C4.15083 9.90932 3.94019 9.58751 3.70078 9.44074C3.46185 9.29397 3.0786 9.25253 2.82749 9.2418C2.77385 9.23936 2.7524 9.15062 2.79921 9.12478C3.01863 9.00093 3.34093 8.79029 3.4877 8.55087C3.63398 8.31195 3.67591 7.9287 3.68664 7.67759Z" fill="#FFC42D"/>
<path opacity="0.5" d="M7.69081 7.1902C7.68642 7.13657 7.59329 7.11414 7.56501 7.15997C7.48114 7.29796 7.36022 7.46375 7.22515 7.54664C7.09009 7.62953 6.88773 7.66171 6.72683 7.67439C6.67319 7.67829 6.65076 7.77191 6.69659 7.7997C6.8341 7.88357 7.00037 8.00449 7.08326 8.13956C7.16615 8.27462 7.19833 8.47746 7.21101 8.63837C7.21491 8.69201 7.30853 8.71395 7.33632 8.66811C7.42019 8.53061 7.54111 8.36434 7.67618 8.28194C7.81124 8.19953 8.01408 8.16638 8.17499 8.15419C8.22863 8.1498 8.25057 8.05667 8.20474 8.02838C8.06723 7.94452 7.90096 7.82359 7.81856 7.68853C7.73615 7.55346 7.703 7.35111 7.69081 7.1902Z" fill="#FFC42D"/>
<path d="M5.84405 1.57646L5.72605 1.42725C5.26917 0.850423 5.04098 0.561765 4.77523 0.604186C4.50998 0.647094 4.38272 0.992314 4.12868 1.68324L4.06285 1.8617C3.99069 2.0582 3.95461 2.15621 3.88537 2.22837C3.81613 2.30054 3.72154 2.33808 3.53235 2.41366L3.36023 2.48241L3.23979 2.53117C2.65467 2.76522 2.36016 2.89833 2.32213 3.15676C2.28215 3.43225 2.56105 3.66825 3.11886 4.13976L3.26319 4.26166C3.42215 4.39575 3.50114 4.46304 3.54649 4.55422C3.59232 4.6454 3.59866 4.75072 3.61134 4.96136L3.62304 5.15299C3.66887 5.89414 3.6913 6.26471 3.93267 6.39246C4.17354 6.52021 4.47292 6.32078 5.07169 5.92144L5.22675 5.81807C5.39692 5.70446 5.48176 5.64741 5.57928 5.6323C5.6768 5.61718 5.77481 5.644 5.97229 5.69861L6.15124 5.74834C6.84509 5.94046 7.19177 6.03652 7.38047 5.84001C7.56966 5.64351 7.47555 5.28415 7.28783 4.56592L7.23907 4.38014C7.18592 4.17584 7.1591 4.07393 7.17373 3.973C7.18836 3.87207 7.24297 3.78332 7.35219 3.60633L7.45117 3.44542C7.83394 2.82324 8.02556 2.51216 7.90171 2.26251C7.77738 2.01383 7.41997 1.99091 6.70515 1.94654L6.51986 1.93484C6.31702 1.92216 6.2156 1.91582 6.12734 1.86901C6.03909 1.82221 5.97424 1.74029 5.84454 1.57646" fill="#FFC42D"/>
<path opacity="0.5" d="M2.9826 6.12307C1.9406 6.63213 1.07317 7.43861 0.745987 8.40211C0.379314 6.10698 0.888366 4.62469 1.70412 3.70312C1.77433 3.84697 1.866 3.96594 1.94792 4.05907C2.11858 4.25216 2.36335 4.4589 2.61202 4.66906L2.79097 4.82021L2.87387 4.89091C2.8763 4.92212 2.87874 4.95918 2.88118 5.00647L2.89581 5.24296C2.91531 5.56234 2.93481 5.87391 2.9826 6.12307Z" fill="#FFC42D"/>
</svg>
