<svg width="24" height="24" viewBox="0 0 24 24" fill="none" xmlns="http://www.w3.org/2000/svg">
<path fill-rule="evenodd" clip-rule="evenodd" d="M11.9773 2.57224C11.2607 2.5593 10.5485 2.6878 9.88165 2.95039C9.21476 3.21298 8.6062 3.6045 8.0908 4.10254C7.5754 4.60059 7.16327 5.19538 6.87801 5.85289C6.59274 6.51039 6.43993 7.2177 6.42833 7.93432V15.4289C6.42833 15.8835 6.24772 16.3196 5.92624 16.641C5.60476 16.9625 5.16875 17.1431 4.71411 17.1431H2.57133C1.88937 17.1431 1.23534 16.8722 0.753125 16.39C0.270907 15.9078 0 15.2537 0 14.5718L0 11.1433C0 10.4614 0.270907 9.80736 0.753125 9.32514C1.23534 8.84292 1.88937 8.57201 2.57133 8.57201H3.857V7.90347C3.87264 6.8499 4.09567 5.80972 4.51336 4.84236C4.93105 3.875 5.53521 2.99939 6.29134 2.26555C7.04747 1.5317 7.94075 0.953999 8.92018 0.565429C9.8996 0.176859 10.946 -0.0149656 11.9995 0.000910789C13.0531 -0.0149656 14.0995 0.176859 15.0789 0.565429C16.0583 0.953999 16.9516 1.5317 17.7078 2.26555C18.4639 2.99939 19.068 3.875 19.4857 4.84236C19.9034 5.80972 20.1265 6.8499 20.1421 7.90347V8.57201H21.4278C22.1097 8.57201 22.7637 8.84292 23.246 9.32514C23.7282 9.80736 23.9991 10.4614 23.9991 11.1433V14.5718C23.9991 15.2537 23.7282 15.9078 23.246 16.39C22.7637 16.8722 22.1097 17.1431 21.4278 17.1431H20.1421V18.0002C20.1423 19.1586 19.716 20.2766 18.9445 21.1407C18.173 22.0048 17.1104 22.5546 15.9594 22.6852C15.7359 23.0843 15.4099 23.4165 15.0152 23.6476C14.6204 23.8788 14.1712 24.0004 13.7138 24H11.1424C10.4605 24 9.80645 23.7291 9.32423 23.2469C8.84201 22.7647 8.5711 22.1106 8.5711 21.4287C8.5711 20.7467 8.84201 20.0927 9.32423 19.6105C9.80645 19.1282 10.4605 18.8573 11.1424 18.8573H13.7138C14.6429 18.8573 15.4571 19.3493 15.908 20.0881C16.3805 19.9796 16.8021 19.7139 17.1042 19.3347C17.4062 18.9555 17.5707 18.485 17.5708 18.0002V7.93261C17.559 7.21229 17.4046 6.50145 17.1164 5.84118C16.8283 5.18091 16.4121 4.5843 15.892 4.08584C15.3718 3.58739 14.7581 3.19698 14.0861 2.93718C13.4142 2.67738 12.6974 2.55334 11.9773 2.57224Z" fill="white"/>
</svg>
