<svg width="32" height="32" viewBox="0 0 32 32" fill="none" xmlns="http://www.w3.org/2000/svg">
<mask id="mask0_117_643" style="mask-type:luminance" maskUnits="userSpaceOnUse" x="0" y="0" width="32" height="32">
<path d="M25.5145 9.37825C26.4703 10.7486 27.1174 12.31 27.4113 13.9548H31V18.0452H27.4113C27.1174 19.69 26.4703 21.2514 25.5145 22.6217L28.0532 25.1605L25.1605 28.0532L22.6217 25.5145C21.2514 26.4703 19.69 27.1174 18.0452 27.4113V31H13.9548V27.4113C12.31 27.1174 10.7486 26.4703 9.37825 25.5145L6.8395 28.0532L3.94675 25.1605L6.4855 22.6217C5.52969 21.2514 4.88255 19.69 4.58875 18.0452H1V13.9548H4.58875C4.88255 12.31 5.52969 10.7486 6.4855 9.37825L3.94675 6.8395L6.8395 3.94675L9.37825 6.4855C10.7486 5.52969 12.31 4.88255 13.9548 4.58875V1H18.0452V4.58875C19.69 4.88255 21.2514 5.52969 22.6217 6.4855L25.1605 3.94675L28.0532 6.8395L25.5145 9.37825Z" fill="white" stroke="white" stroke-width="2" stroke-linejoin="round"/>
<path d="M16 19.75C16.9946 19.75 17.9484 19.3549 18.6517 18.6517C19.3549 17.9484 19.75 16.9946 19.75 16C19.75 15.0054 19.3549 14.0516 18.6517 13.3483C17.9484 12.6451 16.9946 12.25 16 12.25C15.0054 12.25 14.0516 12.6451 13.3483 13.3483C12.6451 14.0516 12.25 15.0054 12.25 16C12.25 16.9946 12.6451 17.9484 13.3483 18.6517C14.0516 19.3549 15.0054 19.75 16 19.75Z" fill="black" stroke="black" stroke-width="2" stroke-linejoin="round"/>
</mask>
<g mask="url(#mask0_117_643)">
<path d="M-2 -2H34V34H-2V-2Z" fill="#CAC6C6"/>
</g>
</svg>
