<svg width="150" height="150" viewBox="0 0 150 150" fill="none" xmlns="http://www.w3.org/2000/svg">
<path fill-rule="evenodd" clip-rule="evenodd" d="M74.8607 16.0771C70.3818 15.9962 65.9308 16.7994 61.7626 18.4406C57.5945 20.0819 53.7908 22.529 50.5694 25.6419C47.3481 28.7548 44.7722 32.4724 42.9892 36.5819C41.2062 40.6915 40.2511 45.1123 40.1786 49.5914V96.4343C40.1786 99.2759 39.0497 102.001 37.0404 104.01C35.0311 106.02 32.3059 107.149 29.4643 107.149H16.0714C11.809 107.149 7.72119 105.455 4.70721 102.441C1.69323 99.4274 0 95.3395 0 91.0771L0 69.6485C0 65.3861 1.69323 61.2983 4.70721 58.2843C7.72119 55.2703 11.809 53.5771 16.0714 53.5771H24.1071V49.3985C24.2049 42.8135 25.5989 36.3122 28.2096 30.2659C30.8202 24.2196 34.5964 18.7469 39.3224 14.1602C44.0483 9.5735 49.6316 5.96272 55.7532 3.53406C61.8749 1.10541 68.4149 -0.0935384 75 0.00569265C81.5851 -0.0935384 88.1251 1.10541 94.2468 3.53406C100.368 5.96272 105.952 9.5735 110.678 14.1602C115.404 18.7469 119.18 24.2196 121.79 30.2659C124.401 36.3122 125.795 42.8135 125.893 49.3985V53.5771H133.929C138.191 53.5771 142.279 55.2703 145.293 58.2843C148.307 61.2983 150 65.3861 150 69.6485V91.0771C150 95.3395 148.307 99.4274 145.293 102.441C142.279 105.455 138.191 107.149 133.929 107.149H125.893V112.506C125.894 119.746 123.23 126.733 118.408 132.134C113.586 137.535 106.944 140.972 99.75 141.788C98.3529 144.282 96.3157 146.359 93.8484 147.803C91.3812 149.248 88.5733 150.008 85.7143 150.006H69.6429C65.3804 150.006 61.2926 148.312 58.2786 145.298C55.2647 142.285 53.5714 138.197 53.5714 133.934C53.5714 129.672 55.2647 125.584 58.2786 122.57C61.2926 119.556 65.3804 117.863 69.6429 117.863H85.7143C91.5214 117.863 96.6107 120.938 99.4286 125.556C102.382 124.877 105.017 123.217 106.905 120.847C108.793 118.476 109.821 115.536 109.821 112.506V49.5807C109.748 45.0785 108.783 40.6356 106.982 36.5088C105.181 32.3819 102.58 28.6529 99.3286 25.5375C96.0776 22.422 92.2414 19.9819 88.0416 18.3581C83.8419 16.7342 79.3619 15.959 74.8607 16.0771Z" fill="#03A7A7"/>
</svg>
