<svg width="18" height="18" viewBox="0 0 18 18" fill="none" xmlns="http://www.w3.org/2000/svg">
<path fill-rule="evenodd" clip-rule="evenodd" d="M9.81819 14.7273V18H8.18181V14.7273H9.81819ZM13.6283 12.4712L15.9425 14.7854L14.7854 15.9425L12.4712 13.6283L13.6283 12.4712ZM4.37166 12.4712L5.52875 13.6283L3.21458 15.9425L2.05749 14.7854L4.37166 12.4712ZM9.00002 4.52634C11.4708 4.52634 13.4737 6.52925 13.4737 9.00002C13.4737 11.4708 11.4708 13.4737 9.00002 13.4737C8.41221 13.4748 7.82997 13.3599 7.28669 13.1354C6.74341 12.911 6.24979 12.5815 5.83415 12.1659C5.4185 11.7502 5.08901 11.2566 4.86458 10.7133C4.64015 10.1701 4.52519 9.58783 4.5263 9.00002C4.5263 6.52925 6.52925 4.52634 9.00002 4.52634ZM9.00002 6.16268C7.43298 6.16268 6.16268 7.43302 6.16268 9.00313C6.16197 9.37552 6.23479 9.74439 6.37697 10.0886C6.51915 10.4328 6.72789 10.7455 6.9912 11.0088C7.52303 11.5406 8.24475 11.8387 9.00002 11.8373V6.16268ZM18 8.18181V9.81819H14.7273V8.18181H18ZM3.27272 8.18181V9.81819H0V8.18181H3.27272ZM3.21458 2.05749L5.52875 4.37166L4.37166 5.52875L2.05749 3.21458L3.21458 2.05749ZM14.7855 2.05749L15.9425 3.21458L13.6283 5.52875L12.4712 4.37166L14.7855 2.05749ZM9.81815 0V3.27272H8.18177V0H9.81815Z" fill="white"/>
</svg>
