<svg width="24" height="18" viewBox="0 0 24 18" fill="none" xmlns="http://www.w3.org/2000/svg">
<path d="M5.45455 17.4545C4.54545 17.4545 3.77273 17.1364 3.13636 16.5C2.5 15.8636 2.18182 15.0909 2.18182 14.1818H1.09091C0.781818 14.1818 0.522909 14.0771 0.314182 13.8676C0.105455 13.6582 0.000727273 13.3993 0 13.0909V2.18182C0 1.58182 0.213818 1.06836 0.641455 0.641454C1.06909 0.214545 1.58255 0.000727273 2.18182 0H15.2727C15.8727 0 16.3865 0.213818 16.8142 0.641454C17.2418 1.06909 17.4553 1.58255 17.4545 2.18182V4.36364H19.6364C19.9818 4.36364 20.3091 4.44109 20.6182 4.596C20.9273 4.75091 21.1818 4.96436 21.3818 5.23636L23.7818 8.42727C23.8545 8.51818 23.9091 8.61818 23.9455 8.72727C23.9818 8.83636 24 8.95454 24 9.08182V13.0909C24 13.4 23.8953 13.6593 23.6858 13.8687C23.4764 14.0782 23.2175 14.1825 22.9091 14.1818H21.8182C21.8182 15.0909 21.5 15.8636 20.8636 16.5C20.2273 17.1364 19.4545 17.4545 18.5455 17.4545C17.6364 17.4545 16.8636 17.1364 16.2273 16.5C15.5909 15.8636 15.2727 15.0909 15.2727 14.1818H8.72727C8.72727 15.0909 8.40909 15.8636 7.77273 16.5C7.13636 17.1364 6.36364 17.4545 5.45455 17.4545ZM5.45455 15.2727C5.76364 15.2727 6.02291 15.168 6.23236 14.9585C6.44182 14.7491 6.54618 14.4902 6.54545 14.1818C6.54473 13.8735 6.44 13.6145 6.23127 13.4051C6.02255 13.1956 5.76364 13.0909 5.45455 13.0909C5.14545 13.0909 4.88655 13.1956 4.67782 13.4051C4.46909 13.6145 4.36436 13.8735 4.36364 14.1818C4.36291 14.4902 4.46764 14.7495 4.67782 14.9596C4.888 15.1698 5.14691 15.2742 5.45455 15.2727ZM18.5455 15.2727C18.8545 15.2727 19.1138 15.168 19.3233 14.9585C19.5327 14.7491 19.6371 14.4902 19.6364 14.1818C19.6356 13.8735 19.5309 13.6145 19.3222 13.4051C19.1135 13.1956 18.8545 13.0909 18.5455 13.0909C18.2364 13.0909 17.9775 13.1956 17.7687 13.4051C17.56 13.6145 17.4553 13.8735 17.4545 14.1818C17.4538 14.4902 17.5585 14.7495 17.7687 14.9596C17.9789 15.1698 18.2378 15.2742 18.5455 15.2727ZM17.4545 9.81818H22.0909L19.6364 6.54545H17.4545V9.81818Z" fill="white"/>
</svg>
